<svg width="180" height="161" viewBox="0 0 180 161" version="1.1" xmlns="http://www.w3.org/2000/svg" xmlns:xlink="http://www.w3.org/1999/xlink">
<title>user-pm</title>
<desc>Created using Figma</desc>
<g id="Canvas" transform="translate(-1935 -3130)">
<g id="user-pm">
<mask id="mask0_alpha" mask-type="alpha">
<g id="Ellipse">
<use xlink:href="#path0_fill" transform="translate(1935 3112)" fill="#CFD7E5"/>
</g>
</mask>
<g id="Dude 2" opacity="0.8" mask="url(#mask0_alpha)">
<g id="Group">
<g id="Group">
<g id="Group">
<g id="Vector">
<use xlink:href="#path1_fill" transform="translate(1977.97 3150.52)" fill="#BF8163"/>
</g>
<g id="Vector">
<use xlink:href="#path2_fill" transform="translate(1975.62 3130)" fill="#3B1D1D"/>
</g>
<g id="Group">
<g id="Vector">
<use xlink:href="#path3_fill" transform="translate(2001.1 3248.92)" fill="#CED0D1"/>
</g>
<g id="Vector">
<use xlink:href="#path4_fill" transform="translate(1932 3255.5)" fill="#00ABEC"/>
</g>
<g id="Vector">
<use xlink:href="#path5_fill" transform="translate(2039.77 3238.35)" fill="#EDC0AA"/>
</g>
<g id="Vector">
<use xlink:href="#path6_fill" transform="translate(2004.71 3239.42)" fill="#EDC0AA"/>
</g>
<g id="Vector">
<use xlink:href="#path7_fill" transform="translate(2040.57 3235.87)" fill="#EDC0AA"/>
</g>
<g id="Vector">
<use xlink:href="#path8_fill" transform="translate(2003.41 3241.73)" fill="#BA7E61"/>
</g>
<g id="Vector">
<use xlink:href="#path9_fill" transform="translate(1995.37 3248.92)" fill="#EFEFF0"/>
</g>
<g id="Vector">
<use xlink:href="#path10_fill" transform="translate(2024.7 3248.92)" fill="#EFEFF0"/>
</g>
<g id="Vector">
<use xlink:href="#path11_fill" transform="translate(2045.19 3248.92)" fill="#CED0D1"/>
</g>
<g id="Vector">
<use xlink:href="#path12_fill" transform="translate(2004.41 3235.87)" fill="#AD6747"/>
</g>
</g>
</g>
</g>
</g>
</g>
</g>
</g>
<defs>
<path id="path0_fill" d="M 180 90C 180 139.706 139.706 180 90 180C 40.2944 180 0 139.706 0 90C 0 40.2944 40.2944 0 90 0C 139.706 0 180 40.2944 180 90Z"/>
<path id="path1_fill" d="M 79.6759 41.2996C 79.6759 41.2996 82.0863 -0.177061 44.0217 0.000568922C 6.05751 -0.177061 8.46793 41.2996 8.46793 41.2996C 4.04882 41.122 -0.872464 40.9443 0.131879 51.5133C 1.13622 62.0823 12.184 63.0593 12.184 63.0593C 12.887 73.7171 20.52 84.1085 26.2448 88.5492C 31.9696 92.99 44.0217 92.99 44.0217 92.99C 44.0217 92.99 56.0738 92.99 61.7985 88.5492C 67.5233 84.1085 75.1563 73.7171 75.8594 63.0593C 75.8594 63.0593 86.9071 62.0823 87.9115 51.5133C 88.9158 40.9443 84.095 41.0331 79.6759 41.2996Z"/>
<path id="path2_fill" d="M 95.586 32.0623C 95.586 18.74 83.1322 12.7006 78.713 10.9243C 78.3113 10.7466 78.4117 10.2137 78.9139 10.2137C 81.9269 10.0361 84.1365 10.4802 84.1365 10.4802C 72.4861 3.19735 55.6132 4.17431 48.8841 4.88483C 48.0806 4.97365 47.7793 3.99668 48.3819 3.64142C 53.3032 0.976966 60.1327 -3.38803e-07 60.1327 -3.38803e-07C 31.0067 0.444075 18.8542 11.1907 15.4394 15.0098C 15.1381 15.365 14.5355 15.0986 14.636 14.6545C 15.6403 10.3914 19.5572 5.41772 19.5572 5.41772C 8.10772 10.4802 7.40469 20.3387 7.70599 25.0459C 3.78905 27.9768 -1.23267 33.7497 0.273847 42.6313C 3.48775 63.3252 5.29556 62.7035 5.29556 62.7035C 5.29556 62.7035 10.8194 61.8153 11.5225 70.8745C 11.5225 70.8745 12.326 50.8022 13.1294 47.9602C 18.4525 42.3648 22.6707 32.7728 22.6707 32.7728C 22.6707 32.7728 61.6392 22.2926 74.8965 41.7431C 79.9183 49.2036 78.6126 68.6541 78.6126 68.6541C 78.6126 68.6541 80.4204 61.5489 85.5426 62.0818C 85.5426 62.0818 88.656 48.2266 88.9573 37.6576C 91.2673 39.7892 91.5686 41.6543 91.5686 41.6543C 93.276 35.4372 91.7695 30.1971 90.966 27.8879C 90.8656 27.6215 91.2673 27.3551 91.5686 27.6215C 93.1756 29.1314 95.586 32.0623 95.586 32.0623Z"/>
<path id="path3_fill" d="M 2.61129 2.71042e-06L 0 2.71042e-06L 2.30999 1.86511L 2.61129 2.71042e-06Z"/>
<path id="path4_fill" d="M 166.319 11.3683L 121.425 -2.71042e-06L 103.246 24.2465L 92.7009 12.4341L 92.5 12.5229L 92.1987 12.3453L 92.2991 12.4341L 81.6531 24.2465L 63.6754 0.266445L 18.5803 11.2795C 18.5803 11.2795 10.646 18.2959 -1.91563e-07 35.2596L 92.7009 35.2596L 185 35.2596C 174.254 18.2959 166.319 11.3683 166.319 11.3683Z"/>
<path id="path5_fill" d="M 0.803478 -5.42084e-06C 0.502175 0.26644 0.200869 0.444073 0 0.710518C 0.301303 0.444073 0.502175 0.177625 0.803478 -5.42084e-06Z"/>
<path id="path6_fill" d="M 0.200872 5.42084e-06L -1.53251e-06 1.42104L 0.200872 5.42084e-06Z"/>
<path id="path7_fill" d="M 3.5152 5.86179L 2.61129 5.42084e-06C 1.70738 0.888157 0.903912 1.7763 3.06501e-06 2.48682C 0.803478 1.7763 1.70738 0.976972 2.61129 5.42084e-06L 3.5152 5.86179Z"/>
<path id="path8_fill" d="M 20.7899 26.1116L 21.0912 26.2893L 21.2921 26.2005L 42.082 9.05914L 41.7807 7.19403L 40.6759 -2.71042e-06C 38.0646 3.01971 25.6108 9.14796 20.2877 9.23678C 15.1656 9.32559 1.90826 1.33223 1.00435 0.799341L 0.200869 7.19403L 3.06501e-06 9.14796L 20.7899 26.1116Z"/>
<path id="path9_fill" d="M 28.8246 19.0064L 28.8246 18.9176L 8.03475 1.86511L 5.72476 2.71042e-06L 3.06501e-06 6.48351L 0.301301 6.83876L 18.279 30.8188L 28.8246 19.0064Z"/>
<path id="path10_fill" d="M 20.7899 2.04275L 20.7899 1.86511L 0 19.0064L 10.5456 30.8188L 28.7242 6.57232L 28.8246 6.48351L 23.0999 2.71042e-06L 20.7899 2.04275Z"/>
<path id="path11_fill" d="M 0.3013 2.04275L 2.61129 2.71042e-06L 1.53251e-06 2.71042e-06L 0.3013 1.86511L 0.3013 2.04275Z"/>
<path id="path12_fill" d="M 19.2834 15.0986C 24.6064 15.0098 37.0603 8.88151 39.6716 5.86179L 38.7676 5.42084e-06C 37.8637 0.888157 37.0603 1.7763 36.1564 2.48682C 35.855 2.75326 35.5537 2.9309 35.3529 3.19734C 29.6281 7.6381 17.576 7.6381 17.576 7.6381C 17.576 7.6381 6.32736 7.6381 0.502175 3.64142L 0.301301 5.06246L 3.06501e-06 6.66114C 3.06501e-06 6.66114 1.534e-06 6.66114 0.100436 6.66114C 1.00434 7.19403 14.1612 15.0986 19.2834 15.0986Z"/>
</defs>
</svg>
