<svg width="112" height="159" viewBox="0 0 112 159" version="1.1" xmlns="http://www.w3.org/2000/svg" xmlns:xlink="http://www.w3.org/1999/xlink">
<title>user-developer</title>
<desc>Created using Figma</desc>
<g id="Canvas" transform="translate(-1616 -3133)">
<g id="user-developer">
<mask id="mask0_alpha" mask-type="alpha">
<g id="Ellipse">
<use xlink:href="#path0_fill" transform="translate(1585 3112)" fill="#CFD7E5"/>
</g>
</mask>
<g id="Lady 1" opacity="0.8" mask="url(#mask0_alpha)">
<g id="Group">
<g id="Group">
<g id="Group">
<g id="Vector">
<use xlink:href="#path1_fill" transform="translate(1627.48 3133)" fill="#BC1E2D"/>
</g>
<g id="Vector">
<use xlink:href="#path2_fill" transform="translate(1671.87 3237.7)" fill="#BC1E2D"/>
</g>
<g id="Vector">
<use xlink:href="#path3_fill" transform="translate(1671.78 3237.7)" fill="#BC1E2D"/>
</g>
<g id="Vector">
<use xlink:href="#path4_fill" transform="translate(1671.68 3237.7)" fill="#BC1E2D"/>
</g>
<g id="Vector">
<use xlink:href="#path5_fill" transform="translate(1671.39 3237.7)" fill="#BC1E2D"/>
</g>
<g id="Vector">
<use xlink:href="#path6_fill" transform="translate(1673.02 3237.61)" fill="#BC1E2D"/>
</g>
<g id="Vector">
<use xlink:href="#path7_fill" transform="translate(1671.01 3237.7)" fill="#BC1E2D"/>
</g>
<g id="Vector">
<use xlink:href="#path8_fill" transform="translate(1670.53 3237.61)" fill="#BC1E2D"/>
</g>
<g id="Vector">
<use xlink:href="#path9_fill" transform="translate(1664.5 3236.27)" fill="#BC1E2D"/>
</g>
<g id="Vector">
<use xlink:href="#path10_fill" transform="translate(1663.45 3235.79)" fill="#BC1E2D"/>
</g>
<g id="Vector">
<use xlink:href="#path11_fill" transform="translate(1665.56 3236.56)" fill="#BC1E2D"/>
</g>
<g id="Vector">
<use xlink:href="#path12_fill" transform="translate(1662.3 3235.41)" fill="#BC1E2D"/>
</g>
<g id="Vector">
<use xlink:href="#path13_fill" transform="translate(1670.05 3237.61)" fill="#BC1E2D"/>
</g>
<g id="Vector">
<use xlink:href="#path14_fill" transform="translate(1667.47 3237.03)" fill="#BC1E2D"/>
</g>
<g id="Vector">
<use xlink:href="#path15_fill" transform="translate(1669.48 3237.51)" fill="#BC1E2D"/>
</g>
<g id="Vector">
<use xlink:href="#path16_fill" transform="translate(1666.51 3236.84)" fill="#BC1E2D"/>
</g>
<g id="Vector">
<use xlink:href="#path17_fill" transform="translate(1680.86 3235.5)" fill="#BC1E2D"/>
</g>
<g id="Vector">
<use xlink:href="#path18_fill" transform="translate(1678.95 3236.27)" fill="#BC1E2D"/>
</g>
<g id="Vector">
<use xlink:href="#path19_fill" transform="translate(1679.91 3235.89)" fill="#BC1E2D"/>
</g>
<g id="Vector">
<use xlink:href="#path20_fill" transform="translate(1674.07 3237.51)" fill="#BC1E2D"/>
</g>
<g id="Vector">
<use xlink:href="#path21_fill" transform="translate(1627.29 3193.22)" fill="#BC1E2D"/>
</g>
<g id="Vector">
<use xlink:href="#path22_fill" transform="translate(1682.11 3220.96)" fill="#BC1E2D"/>
</g>
<g id="Vector">
<use xlink:href="#path23_fill" transform="translate(1675.41 3237.25)" fill="#BC1E2D"/>
</g>
<g id="Vector">
<use xlink:href="#path24_fill" transform="translate(1674.65 3237.42)" fill="#BC1E2D"/>
</g>
<g id="Vector">
<use xlink:href="#path25_fill" transform="translate(1677.9 3236.56)" fill="#BC1E2D"/>
</g>
<g id="Vector">
<use xlink:href="#path26_fill" transform="translate(1677.04 3236.75)" fill="#BC1E2D"/>
</g>
<g id="Vector">
<use xlink:href="#path27_fill" transform="translate(1676.27 3237.03)" fill="#BC1E2D"/>
</g>
<g id="Vector">
<use xlink:href="#path28_fill" transform="translate(1626.99 3159.54)" fill="#FFCEB7"/>
</g>
<g id="Vector">
<use xlink:href="#path29_fill" transform="translate(1689.47 3248.71)" fill="#895A59"/>
</g>
<g id="Vector">
<use xlink:href="#path30_fill" transform="translate(1677.13 3255.11)" fill="#895A59"/>
</g>
<g id="Vector">
<use xlink:href="#path31_fill" transform="translate(1666.7 3291.85)" fill="#895A59"/>
</g>
<g id="Vector">
<use xlink:href="#path32_fill" transform="translate(1677.04 3291.76)" fill="#895A59"/>
</g>
<g id="Vector">
<use xlink:href="#path33_fill" transform="translate(1616 3255.02)" fill="#895A59"/>
</g>
<g id="Vector">
<use xlink:href="#path34_fill" transform="translate(1661.44 3238.66)" fill="#FFCEB7"/>
</g>
<g id="Vector">
<use xlink:href="#path35_fill" transform="translate(1674.84 3260.86)" fill="#CED0D1"/>
</g>
<g id="Vector">
<use xlink:href="#path36_fill" transform="translate(1661.73 3260.86)" fill="#CED0D1"/>
</g>
<g id="Vector">
<use xlink:href="#path37_fill" transform="translate(1668.91 3264.27)" fill="#CED0D1"/>
</g>
<g id="Vector">
<use xlink:href="#path38_fill" transform="translate(1663.64 3251.86)" fill="#DA251D"/>
</g>
<g id="Vector">
<use xlink:href="#path39_fill" transform="translate(1666.7 3264.24)" fill="#C4211A"/>
</g>
<g id="Vector">
<use xlink:href="#path40_fill" transform="translate(1654.08 3241.63)" fill="#FFFFFF"/>
</g>
<g id="Vector">
<use xlink:href="#path41_fill" transform="translate(1671.87 3241.63)" fill="#FFFFFF"/>
</g>
<g id="Vector">
<use xlink:href="#path42_fill" transform="translate(1628.92 3245.26)" fill="#4B3118"/>
</g>
<g id="Vector">
<use xlink:href="#path43_fill" transform="translate(1676.84 3245.26)" fill="#4B3118"/>
</g>
<g id="Vector">
<use xlink:href="#path44_fill" transform="translate(1662.11 3235.12)" fill="#DBB19D"/>
</g>
</g>
</g>
</g>
</g>
</g>
</g>
<defs>
<path id="path0_fill" d="M 180 90C 180 139.706 139.706 180 90 180C 40.2944 180 0 139.706 0 90C 0 40.2944 40.2944 0 90 0C 139.706 0 180 40.2944 180 90Z"/>
<path id="path1_fill" d="M 1.05236 54.764C 1.14803 54.5727 1.2437 54.477 1.43504 54.2857C 1.81771 53.8073 2.20039 53.5203 2.58307 53.1376C 2.67873 53.1376 2.67874 53.042 2.7744 53.042C 2.87007 52.9463 2.96574 52.9463 3.06141 52.8506C 3.15708 52.8506 3.25275 52.755 3.34842 52.755C 3.44409 52.6593 3.53975 52.6593 3.63542 52.5636C 3.73109 52.468 3.82676 52.468 4.0181 52.468C 4.11377 52.468 4.20944 52.3723 4.30511 52.3723C 4.49645 52.2766 4.68779 52.2766 4.87912 52.2766C 4.97479 52.2766 5.07046 52.2766 5.07046 52.2766C 5.2618 52.2766 5.35747 52.2766 5.5488 52.2766C 5.64447 52.2766 5.74015 52.2766 5.83581 52.2766C 6.02715 52.2766 6.12282 52.2766 6.31416 52.2766C 6.40983 52.2766 6.40983 52.2766 6.5055 52.2766C 6.69683 52.2766 6.98385 52.3723 7.17518 52.3723C 7.94054 52.755 8.61022 53.1376 9.37557 53.5203C 9.56691 53.616 9.66257 53.8073 9.85391 53.903C 9.94958 53.7117 9.94959 53.4246 10.0453 53.1376C 10.0453 53.042 10.0453 53.042 10.0453 52.9463C 10.1409 52.6593 10.2366 52.2766 10.3323 51.9896C 10.3323 51.8939 10.4279 51.7026 10.4279 51.6069C 10.5236 51.3199 10.6193 50.9373 10.7149 50.6502C 10.8106 50.4589 10.8106 50.3632 10.9063 50.1719C 11.0019 49.8849 11.0976 49.5022 11.1933 49.2152C 11.289 49.0239 11.2889 48.8325 11.3846 48.7369C 11.4803 48.4499 11.576 48.0672 11.7673 47.7802C 11.863 47.5888 11.9586 47.3975 11.9586 47.2062C 12.0543 46.9192 12.2456 46.5365 12.3413 46.2495C 12.437 46.0581 12.5326 45.8668 12.6283 45.5798C 12.724 45.2928 12.9153 45.0058 13.011 44.6231C 13.1067 44.4318 13.2023 44.1447 13.298 43.9534C 13.4893 43.6664 13.585 43.3794 13.7763 42.9967C 13.872 42.7097 14.0634 42.5184 14.159 42.2314C 14.3504 41.9444 14.446 41.6573 14.6374 41.2747C 14.733 40.9877 14.9244 40.7963 15.1157 40.5093C 15.3071 40.2223 15.4984 39.9353 15.5941 39.6483C 15.7854 39.3613 15.8811 39.0743 16.0724 38.7873C 16.2637 38.5003 16.4551 38.2133 16.6464 37.9263C 16.8378 37.6392 17.0291 37.3522 17.2204 37.0652C 17.4118 36.7782 17.6031 36.4912 17.7945 36.2042C 17.9858 35.9172 18.2728 35.5345 18.4641 35.2475C 18.6555 34.9605 18.8468 34.6735 19.0381 34.3865C 19.3252 34.0995 19.5165 33.7168 19.8035 33.3341C 19.9948 33.0471 20.1862 32.7601 20.3775 32.4731C 20.6645 32.0904 20.9515 31.7078 21.2385 31.3251C 21.4299 31.0381 21.6212 30.8467 21.8125 30.5597C 22.1952 30.1771 22.4822 29.6987 22.8649 29.316C 23.0562 29.1247 23.2476 28.9334 23.4389 28.6464C 24.0129 27.9767 24.587 27.4027 25.161 26.733C 25.161 26.733 24.2999 47.9715 56.7318 55.625C 57.3058 55.7207 57.8798 55.912 58.4538 56.1034C 58.5495 56.1034 58.7408 56.199 58.8365 56.199C 59.4105 56.3904 59.8888 56.5817 60.3672 56.7731C 60.3672 56.7731 60.4629 56.7731 60.4629 56.8687C 60.9412 57.0601 61.4195 57.2514 61.8022 57.5384C 61.8979 57.6341 61.9936 57.6341 62.0892 57.7298C 62.5676 58.0168 62.9502 58.2081 63.4286 58.4951C 63.5243 58.4951 63.5243 58.5908 63.6199 58.5908C 64.0026 58.8778 64.3853 59.0691 64.6723 59.3561C 64.768 59.4518 64.8636 59.5475 64.9593 59.5475C 65.342 59.8345 65.7247 60.2171 66.0117 60.5042C 66.1073 60.5998 66.1073 60.5998 66.203 60.6955C 66.49 60.9825 66.777 61.2695 67.064 61.6522C 67.1597 61.7479 67.2554 61.8435 67.2554 61.9392C 67.5424 62.3219 67.8294 62.7045 68.1164 63.0872C 68.2121 63.1829 68.212 63.2786 68.3077 63.2786C 68.4991 63.5656 68.7861 63.9482 68.9774 64.3309C 69.0731 64.4266 69.0731 64.5223 69.1687 64.6179C 69.4557 65.0006 69.6471 65.479 69.8384 65.8616C 69.9341 65.9573 69.9341 66.053 70.0298 66.1486C 70.2211 66.5313 70.4124 66.914 70.5081 67.2967C 70.5081 67.3923 70.6038 67.488 70.6038 67.5837C 70.7951 68.062 70.9865 68.4447 71.0821 68.923C 71.0821 69.0187 71.1778 69.21 71.1778 69.3057C 71.2735 69.6884 71.4648 70.0711 71.5605 70.5494C 71.5605 70.6451 71.6561 70.7407 71.6561 70.8364C 71.7518 71.3148 71.9431 71.7931 72.0388 72.2715C 72.0388 72.3671 72.1345 72.5585 72.1345 72.6541C 72.2301 73.0368 72.3258 73.5152 72.4215 73.9935C 72.4215 74.0892 72.4215 74.1848 72.5172 74.2805C 72.6128 74.7589 72.7085 75.3329 72.7085 75.8112C 72.7085 76.0025 72.7085 76.0982 72.8042 76.2896C 72.8998 76.7679 72.8998 77.2462 72.8998 77.7246C 72.8998 77.8203 72.8998 77.9159 72.8998 78.0116C 72.8998 78.4899 72.9955 79.064 72.9955 79.638C 72.9955 79.8293 72.9955 80.0206 72.9955 80.1163C 72.9955 80.5947 72.9955 81.073 72.9955 81.647C 72.9955 81.7427 72.9955 81.8384 72.9955 81.934C 72.9955 82.4124 72.9955 82.8907 72.9955 83.4647C 72.9955 83.6561 72.9955 83.8474 72.9955 84.0387C 72.9955 84.6128 72.9955 85.0911 72.8998 85.6651C 72.5172 92.8403 70.9865 100.302 69.3601 106.712C 85.1455 86.6218 89.8333 71.8888 89.9289 59.1648C 90.4073 -3.30711 44.3904 0.0413051 44.3904 0.0413051C 44.3904 0.0413051 3.44409 -3.59412 -7.29897e-07 57.3471C 0.191337 56.3904 0.574016 55.5294 1.05236 54.764C 0.956692 54.8597 0.956692 54.8597 1.05236 54.764Z"/>
<path id="path2_fill" d="M -2.91959e-06 -6.10352e-06C -2.91959e-06 -6.10352e-06 0.0956662 -6.10352e-06 -2.91959e-06 -6.10352e-06C 0.0956662 -6.10352e-06 -2.91959e-06 -6.10352e-06 -2.91959e-06 -6.10352e-06Z"/>
<path id="path3_fill" d="M -1.45979e-06 -6.10352e-06C 0.0956676 -6.10352e-06 0.0956676 -6.10352e-06 -1.45979e-06 -6.10352e-06C 0.0956676 -6.10352e-06 0.0956676 -6.10352e-06 -1.45979e-06 -6.10352e-06Z"/>
<path id="path4_fill" d="M 0 -6.10352e-06L 0.0956676 -6.10352e-06C -1.46122e-06 -6.10352e-06 0 -6.10352e-06 0 -6.10352e-06Z"/>
<path id="path5_fill" d="M -2.91959e-06 -6.10352e-06C 0.0956662 -6.10352e-06 0.095672 -6.10352e-06 0.095672 -6.10352e-06L -2.91959e-06 -6.10352e-06Z"/>
<path id="path6_fill" d="M 1.45979e-06 3.05176e-06L 0.0956691 3.05176e-06L 1.45979e-06 3.05176e-06Z"/>
<path id="path7_fill" d="M 2.91959e-06 -6.10352e-06C 0.095672 -6.10352e-06 0.0956691 -6.10352e-06 0.191338 -6.10352e-06C 0.0956691 -6.10352e-06 0.095672 -6.10352e-06 2.91959e-06 -6.10352e-06Z"/>
<path id="path8_fill" d="M 2.91959e-06 3.05176e-06C 0.095672 3.05176e-06 0.0956691 3.05176e-06 0.191338 3.05176e-06C 0.191338 3.05176e-06 0.095672 3.05176e-06 2.91959e-06 3.05176e-06Z"/>
<path id="path9_fill" d="M 0 -5.83918e-06C 0.0956691 -5.83918e-06 0.287009 0.0956691 0.382678 0.0956691C 0.287009 0.0956691 0.191338 -5.83918e-06 0 -5.83918e-06Z"/>
<path id="path10_fill" d="M 1.45979e-06 -5.83918e-06C 0.0956705 0.0956632 0.28701 0.0956749 0.382679 0.191344C 0.28701 0.191344 0.19134 0.0956632 1.45979e-06 -5.83918e-06Z"/>
<path id="path11_fill" d="M -1.45979e-06 -2.91959e-06C 0.0956676 -2.91959e-06 0.287007 0.095672 0.382676 0.095672C 0.287007 0.095672 0.0956676 -2.91959e-06 -1.45979e-06 -2.91959e-06Z"/>
<path id="path12_fill" d="M -2.91959e-06 0C 0.191335 0.0956691 0.287004 0.0956662 0.478342 0.191335C 0.382673 0.0956662 0.191335 0 -2.91959e-06 0Z"/>
<path id="path13_fill" d="M 2.91959e-06 3.05176e-06C 0.095672 3.05176e-06 0.0956691 3.05176e-06 0.191338 3.05176e-06C 0.0956691 3.05176e-06 0.095672 3.05176e-06 2.91959e-06 3.05176e-06Z"/>
<path id="path14_fill" d="M -1.45979e-06 -2.91959e-06C 0.0956676 -2.91959e-06 0.191341 2.91531e-06 0.191341 0.095672C 0.095672 0.095672 -1.45979e-06 0.0956662 -1.45979e-06 -2.91959e-06Z"/>
<path id="path15_fill" d="M -2.91959e-06 -3.05176e-06L 0.095672 -3.05176e-06C 0.095672 -3.05176e-06 0.0956662 -3.05176e-06 -2.91959e-06 -3.05176e-06Z"/>
<path id="path16_fill" d="M -1.45979e-06 0C 0.0956676 0 0.19134 0.0956749 0.287009 0.0956749C 0.19134 0.0956749 0.0956676 0 -1.45979e-06 0Z"/>
<path id="path17_fill" d="M -1.45979e-06 0.0956662C 0.0956676 0.0956662 0.19134 5.83918e-06 0.287009 5.83918e-06C 0.19134 5.83918e-06 0.0956676 -2.92244e-06 -1.45979e-06 0.0956662Z"/>
<path id="path18_fill" d="M -1.45979e-06 -6.10352e-06L 0.0956662 -6.10352e-06C 0.0956662 -6.10352e-06 0.0956676 -6.10352e-06 -1.45979e-06 -6.10352e-06Z"/>
<path id="path19_fill" d="M -1.45979e-06 0.0956749C 0.0956676 0.0956749 0.19134 0 0.287009 0C 0.19134 0 0.0956676 5.83775e-06 -1.45979e-06 0.0956749Z"/>
<path id="path20_fill" d="M 0 -3.05176e-06L 0.0956676 -3.05176e-06C 0.0956676 -3.05176e-06 0.0956691 -3.05176e-06 0 -3.05176e-06Z"/>
<path id="path21_fill" d="M 17.4118 54.4357C 23.1519 52.7137 30.1358 52.044 30.1358 52.044L 27.17 54.8184L 33.9625 48.4086L 34.1539 48.5999L 34.2495 45.4428L 34.3452 41.7117C 26.7873 38.2676 16.6464 30.5184 9.47124 12.6283C 9.47124 12.6283 2.00905 15.2114 0.0956698 0.382679C 0.0956698 0.28701 0.0956698 0.0956705 0.0956698 1.45979e-06C 0.0956698 1.05236 -1.45979e-06 2.10472 -1.45979e-06 3.15708C -1.45979e-06 3.15708 -3.64949e-06 34.3452 15.8811 54.9141C 16.1681 54.7227 16.7421 54.5314 17.4118 54.4357Z"/>
<path id="path22_fill" d="M 16.6464 -5.83918e-06C 16.6464 0.0956632 16.5507 0.0956691 16.5507 0.0956691C 16.2637 0.478345 15.9767 0.861027 15.6897 1.14803C 15.5941 1.2437 15.4984 1.43504 15.4027 1.53071C 15.02 2.00905 14.733 2.39172 14.3504 2.87007C 14.159 3.0614 13.9677 3.25275 13.872 3.44409C 13.6807 3.63542 13.4893 3.82676 13.298 4.11377C 13.1067 4.40077 12.8197 4.59212 12.6283 4.87912C 12.5326 4.97479 12.3413 5.16612 12.2456 5.26179C 11.9586 5.5488 11.7673 5.74014 11.4803 6.02715C 11.3846 6.12282 11.2889 6.21849 11.1933 6.31416C 10.9063 6.60117 10.6193 6.88818 10.3323 7.07951C 10.3323 7.07951 10.3323 7.07951 10.2366 7.17517C 6.60116 10.5236 3.06141 12.6283 1.45979e-06 14.0634L 1.45979e-06 17.9858L 1.45979e-06 20.9515L 0.287004 20.6645L 7.55786 27.457L 7.46218 27.6484C 7.46218 27.6484 7.46219 27.6484 7.55786 27.6484C 7.55786 27.5527 7.65353 27.5527 7.65353 27.457L 4.30511 24.2999C 4.30511 24.2999 10.7149 24.9696 16.3594 26.5003C 11.6716 15.8811 15.4984 6.31415 16.6464 -5.83918e-06C 16.7421 -5.83918e-06 16.7421 -5.83918e-06 16.6464 -5.83918e-06Z"/>
<path id="path23_fill" d="M 1.45979e-06 0.0717518C 0.0956705 0.0717518 0.0956676 0.0717518 0.191337 0.0717518C 0.0956676 -0.0239173 1.45979e-06 -0.0239173 1.45979e-06 0.0717518Z"/>
<path id="path24_fill" d="M -1.45979e-06 6.10352e-06C 0.0956676 6.10352e-06 0.095672 6.10352e-06 0.191341 6.10352e-06C 0.191341 6.10352e-06 0.0956676 6.10352e-06 -1.45979e-06 6.10352e-06Z"/>
<path id="path25_fill" d="M 0 0.095672C 0.0956691 0.095672 0.191335 0.0956662 0.191335 -2.91959e-06C 0.0956662 -2.91959e-06 0.0956691 0.095672 0 0.095672Z"/>
<path id="path26_fill" d="M -1.45979e-06 0.0956691C 0.0956676 0.0956691 0.19134 0.0956632 0.287009 -5.83918e-06C 0.19134 0.0956632 0.0956676 0.0956691 -1.45979e-06 0.0956691Z"/>
<path id="path27_fill" d="M 2.91959e-06 -3.05176e-06C 0.095672 -3.05176e-06 0.0956691 -3.05176e-06 0.191338 -3.05176e-06C 0.0956691 -3.05176e-06 2.91959e-06 -3.05176e-06 2.91959e-06 -3.05176e-06Z"/>
<path id="path28_fill" d="M 9.76687 46.3995C 16.9421 64.2896 27.083 72.0388 34.6408 75.4829C 34.9278 75.5786 35.1192 75.6742 35.3105 75.7699C 35.5019 75.8656 35.5975 75.8656 35.7889 75.9613C 35.9802 76.0569 36.2672 76.1526 36.4585 76.2483C 36.5542 76.3439 36.7456 76.3439 36.8412 76.4396C 37.0326 76.5353 37.3196 76.6309 37.5109 76.6309C 37.6066 76.6309 37.7979 76.7266 37.8936 76.7266C 38.0849 76.8223 38.2763 76.8223 38.5633 76.9179C 38.6589 76.9179 38.8503 77.0136 38.9459 77.0136C 39.1373 77.1093 39.3286 77.1093 39.52 77.2049C 39.6156 77.2049 39.7113 77.3006 39.807 77.3006C 39.9983 77.3963 40.1896 77.3963 40.381 77.492C 40.4766 77.492 40.5723 77.492 40.5723 77.5876C 41.242 77.779 41.9117 77.8746 42.39 77.9703L 42.4857 77.9703C 42.677 77.9703 42.7727 77.9703 42.8684 78.066C 42.964 78.066 42.964 78.066 43.0597 78.066C 43.1554 78.066 43.251 78.066 43.3467 78.066C 43.4424 78.066 43.4424 78.066 43.5381 78.066C 43.6337 78.066 43.7294 78.066 43.8251 78.066C 43.9207 78.066 43.9207 78.066 44.0164 78.066C 44.1121 78.066 44.1121 78.066 44.2077 78.066C 44.3034 78.066 44.3034 78.066 44.3034 78.066L 44.3991 78.066L 44.4948 78.066C 44.4948 78.066 44.4948 78.066 44.5904 78.066L 44.6861 78.066L 44.7818 78.066C 44.7818 78.066 44.7818 78.066 44.8774 78.066C 44.9731 78.066 44.9731 78.066 45.0688 78.066C 45.1644 78.066 45.2601 78.066 45.3558 78.066L 45.4514 78.066C 45.5471 78.066 45.6428 78.066 45.7384 78.066L 45.8341 78.066C 45.9298 78.066 46.1211 78.066 46.2168 78.066L 46.3125 78.066C 46.5038 78.066 46.6951 78.066 46.7908 77.9703L 46.8865 77.9703C 47.0778 77.9703 47.1735 77.8746 47.3648 77.8746C 47.4605 77.8746 47.4605 77.8746 47.5562 77.8746C 47.7475 77.8746 47.8432 77.779 48.0345 77.779C 48.1302 77.779 48.1302 77.779 48.2258 77.779C 48.4172 77.6833 48.7042 77.6833 48.8955 77.5876C 48.9912 77.5876 48.9912 77.5876 49.0869 77.5876C 49.2782 77.492 49.4695 77.492 49.6609 77.3963C 49.7565 77.3963 49.8522 77.3963 49.9479 77.3006C 50.1392 77.2049 50.3306 77.2049 50.5219 77.1093C 50.6176 77.1093 50.7132 77.1093 50.7132 77.0136C 51.0002 76.9179 51.2873 76.8223 51.5743 76.7266L 51.6699 76.7266C 51.9569 76.6309 52.2439 76.5353 52.4353 76.4396C 52.5309 76.4396 52.6266 76.3439 52.7223 76.3439C 52.9136 76.2483 53.2006 76.1526 53.392 76.0569C 53.4876 76.0569 53.5833 75.9613 53.679 75.9613C 53.966 75.8656 54.3487 75.6742 54.6357 75.4829C 57.7928 74.0479 61.3325 71.8475 64.8723 68.5947C 64.8723 68.5947 64.8723 68.5947 64.9679 68.4991C 65.2549 68.2121 65.5419 68.0207 65.8289 67.7337C 65.9246 67.638 66.0203 67.5424 66.116 67.4467C 66.403 67.1597 66.5943 66.9684 66.8813 66.6813C 66.977 66.5857 67.1683 66.3943 67.264 66.2987C 67.4553 66.0117 67.7423 65.8203 67.9337 65.5333C 68.125 65.342 68.3163 65.1506 68.5077 64.8636C 68.699 64.6723 68.8904 64.481 68.986 64.2896C 69.3687 63.9069 69.6557 63.4286 70.0384 62.9503C 70.1341 62.8546 70.2297 62.6633 70.3254 62.5676C 70.6124 62.1849 70.8994 61.8979 71.1864 61.5152C 71.1864 61.4195 71.2821 61.4195 71.2821 61.4195C 71.2821 61.4195 71.2821 61.4196 71.2821 61.3239C 71.8561 60.5585 72.4301 59.7932 72.9085 58.9322C 72.9085 58.3581 72.9085 57.8798 73.0041 57.3058C 73.0041 57.1144 73.0041 56.9231 73.0041 56.7318C 73.0041 56.2534 73.0041 55.7751 73.0041 55.2011C 73.0041 55.1054 73.0041 55.0097 73.0041 54.914C 73.0041 54.4357 73.0041 53.9574 73.0041 53.3833C 73.0041 53.192 73.0041 53.0007 73.0041 52.905C 73.0041 52.331 72.9085 51.8526 72.9085 51.2786C 72.9085 51.183 72.9085 51.0873 72.9085 50.9916C 72.9085 50.5133 72.8128 50.0349 72.8128 49.5566C 72.8128 49.3652 72.8128 49.2696 72.7171 49.0782C 72.6215 48.5999 72.6215 48.0259 72.5258 47.5475C 72.5258 47.4519 72.5258 47.3562 72.4301 47.2605C 72.3344 46.7822 72.2388 46.3995 72.1431 45.9212C 72.1431 45.8255 72.0474 45.6342 72.0474 45.5385C 71.9518 45.0601 71.8561 44.5818 71.6648 44.1034C 71.6648 44.0078 71.5691 43.9121 71.5691 43.8164C 71.4734 43.4338 71.2821 42.9554 71.1864 42.5727C 71.1864 42.4771 71.0908 42.2857 71.0908 42.1901C 70.8994 41.7117 70.7081 41.2334 70.6124 40.8507C 70.6124 40.755 70.5167 40.6594 70.5167 40.5637C 70.3254 40.181 70.1341 39.7983 70.0384 39.4157C 69.9427 39.32 69.9427 39.2243 69.8471 39.1287C 69.6557 38.746 69.3687 38.2676 69.1774 37.885C 69.0817 37.7893 69.0817 37.6936 68.986 37.5979C 68.7947 37.2153 68.5077 36.9283 68.3163 36.5456C 68.2207 36.4499 68.2207 36.3542 68.125 36.3542C 67.838 35.9716 67.551 35.5889 67.264 35.2062C 67.1683 35.1105 67.0726 35.0149 67.0726 34.9192C 66.7856 34.6322 66.4986 34.3452 66.2116 33.9625C 66.116 33.8668 66.116 33.8669 66.0203 33.7712C 65.6376 33.4842 65.3506 33.1015 64.9679 32.8145C 64.8723 32.7188 64.7766 32.6232 64.6809 32.6232C 64.2982 32.3362 64.0112 32.0491 63.6286 31.8578C 63.5329 31.8578 63.5329 31.7621 63.4372 31.7621C 63.0545 31.4751 62.5762 31.1881 62.0979 30.9968C 62.0022 30.9011 61.9065 30.9011 61.8108 30.8054C 61.3325 30.6141 60.9498 30.3271 60.4715 30.1358C 60.4715 30.1358 60.3758 30.1358 60.3758 30.0401C 59.8975 29.8487 59.3235 29.6574 58.8451 29.4661C 58.7494 29.4661 58.5581 29.3704 58.4624 29.3704C 57.8884 29.1791 57.3144 29.0834 56.7404 28.8921C 24.3086 21.2385 25.1696 -2.91959e-06 25.1696 -2.91959e-06C 24.5956 0.669681 24.0216 1.2437 23.4476 1.91338C 23.2562 2.10472 23.0649 2.29606 22.8735 2.58307C 22.4909 2.96574 22.1082 3.44408 21.8212 3.82676C 21.6298 4.11377 21.4385 4.30511 21.2472 4.59212C 20.9602 4.97479 20.6731 5.35747 20.3861 5.74014C 20.1948 6.02715 20.0035 6.31416 19.8121 6.60116C 19.5251 6.98384 19.3338 7.27085 19.0468 7.65352C 18.8554 7.94053 18.6641 8.22754 18.4728 8.51455C 18.2814 8.80155 17.9944 9.18423 17.8031 9.47124C 17.6117 9.75824 17.4204 10.0453 17.2291 10.3323C 17.0377 10.6193 16.8464 10.9063 16.655 11.1933C 16.4637 11.4803 16.2724 11.7673 16.081 12.0543C 15.8897 12.3413 15.6984 12.6283 15.6027 12.9153C 15.4113 13.2023 15.22 13.4893 15.1243 13.7763C 14.933 14.0634 14.8373 14.2547 14.646 14.5417C 14.4547 14.8287 14.359 15.1157 14.1676 15.4984C 14.072 15.7854 13.8806 15.9767 13.785 16.2637C 13.5936 16.5507 13.498 16.8378 13.3066 17.2204C 13.211 17.4118 13.1153 17.6988 13.0196 17.8901C 12.8283 18.1771 12.7326 18.5598 12.6369 18.8468C 12.5413 19.0381 12.4456 19.2295 12.3499 19.5165C 12.2543 19.8035 12.0629 20.1862 11.9673 20.4732C 11.8716 20.6645 11.7759 20.8559 11.7759 21.0472C 11.6803 21.3342 11.4889 21.7169 11.3932 22.0039C 11.2976 22.1952 11.2976 22.3866 11.2019 22.4822C 11.1062 22.7692 11.0106 23.1519 10.9149 23.4389C 10.8192 23.6303 10.8192 23.7259 10.7236 23.9173C 10.6279 24.2043 10.5322 24.5869 10.4366 24.874C 10.4366 24.9696 10.3409 25.161 10.3409 25.2566C 10.2452 25.5436 10.1496 25.9263 10.0539 26.2133C 10.0539 26.309 10.0539 26.309 10.0539 26.4047C 10.0539 26.7873 10.0539 27.0744 10.1495 27.3614C 9.95821 27.17 9.6712 26.9787 9.47986 26.7873C 8.71451 26.4047 8.04483 26.022 7.27948 25.6393C 7.08814 25.5436 6.80113 25.5436 6.60979 25.5436C 6.51412 25.5436 6.51412 25.5436 6.41845 25.5436C 6.22712 25.5436 6.13145 25.5436 5.94011 25.5436C 5.84444 25.5436 5.74877 25.5436 5.6531 25.5436C 5.46176 25.5436 5.3661 25.5436 5.17476 25.5436C 5.07909 25.5436 4.98342 25.5436 4.98342 25.5436C 4.79208 25.5436 4.60074 25.6393 4.40941 25.6393C 4.31374 25.6393 4.21806 25.735 4.1224 25.735C 4.02673 25.735 3.93106 25.8306 3.73972 25.8306C 3.64405 25.8306 3.54838 25.9263 3.45271 26.022C 3.35705 26.022 3.26137 26.1177 3.1657 26.1177C 3.07004 26.2133 2.97437 26.2133 2.8787 26.309C 2.78303 26.309 2.78303 26.4047 2.68736 26.4047C 2.30468 26.6917 1.92201 27.0743 1.53933 27.5527C 1.44366 27.744 1.34799 27.8397 1.15666 28.031C 0.67831 28.7007 0.391303 29.5617 0.199965 30.5184C 0.00862647 31.3795 -0.0870411 32.4318 0.104297 33.4842C 0.104297 33.5798 0.104297 33.7712 0.104297 33.8669C 2.40035 48.9826 9.76687 46.3995 9.76687 46.3995Z"/>
<path id="path29_fill" d="M 0.191341 -5.83918e-06L -1.45979e-06 0.382679C 0.0956676 0.28701 0.191341 0.0956632 0.191341 -5.83918e-06Z"/>
<path id="path30_fill" d="M 24.5869 11.1933C 24.5869 11.1933 15.4027 17.6031 11.6716 20.8559C 7.94053 24.1086 -2.91959e-06 37.885 -2.91959e-06 37.885L 50.3219 37.885C 50.3219 37.885 44.1991 4.78345 38.6503 1.05236C 38.172 0.76535 37.5023 0.382682 36.5456 5.83918e-06L 19.8992 8.80156L 24.5869 11.1933Z"/>
<path id="path31_fill" d="M 0.0956705 0C 0.0956705 0.669684 2.91959e-06 1.14803 2.91959e-06 1.14803L 0.0956705 0Z"/>
<path id="path32_fill" d="M -1.45979e-06 -5.83918e-06L 0.0956662 1.2437C -2.92244e-06 1.2437 -1.45979e-06 0.765347 -1.45979e-06 -5.83918e-06Z"/>
<path id="path33_fill" d="M 39.033 20.9515C 35.3019 17.6988 26.1177 11.289 26.1177 11.289L 30.9968 8.89723L 14.0634 0C 13.011 0.382676 12.15 0.76535 11.6716 1.14803C 6.02715 4.87912 -7.29897e-07 37.9806 -7.29897e-07 37.9806L 50.8003 37.9806C 50.7046 37.9806 42.7641 24.2043 39.033 20.9515Z"/>
<path id="path34_fill" d="M 10.4279 13.2023L 20.7602 3.25275L 20.7602 0.287004C 17.5074 1.43503 12.8197 2.87007 10.7149 2.96574C 8.70588 3.06141 3.7311 1.43503 0.0956705 -5.83918e-06L 2.91959e-06 3.15708L 10.4279 13.2023Z"/>
<path id="path35_fill" d="M 6.02715 4.40077C 6.31416 3.82676 6.79251 3.0614 7.27085 2.20038L 5.2618 5.83918e-06L 2.91959e-06 3.92243L 2.10472 30.9968C 1.91338 26.6917 1.5307 12.5326 6.02715 4.40077Z"/>
<path id="path36_fill" d="M -1.45979e-06 2.10472C 0.478344 3.06141 0.956692 3.82676 1.2437 4.40077C 5.83581 12.5326 5.35747 26.883 5.07046 30.9968L 7.17518 3.92243L 1.91338 5.83918e-06L -1.45979e-06 2.10472Z"/>
<path id="path37_fill" d="M 2.96574 0.0307057C 2.00905 -0.160632 -1.45979e-06 0.604726 -1.45979e-06 0.604726C 2.29606 -0.160627 4.11377 0.126378 5.16613 0.317716C 4.49645 0.126378 3.53975 -0.0649634 2.96574 0.0307057Z"/>
<path id="path38_fill" d="M 8.22754 -2.91959e-06L -1.45979e-06 8.9929L 5.2618 12.9153C 5.2618 12.9153 6.69683 12.437 8.22754 12.437C 8.89722 12.437 9.94958 12.5326 10.4279 12.724C 10.9063 12.8197 11.1933 13.011 11.1933 13.011L 16.4551 9.08856L 8.22754 -2.91959e-06Z"/>
<path id="path39_fill" d="M 8.13187 0.538961C 8.13187 0.538961 7.84486 0.443289 7.36652 0.251951C 6.40983 -0.035056 4.49645 -0.226391 2.20039 0.538961L 0.0956705 27.6133L 2.91959e-06 28.7613L 10.3323 28.7613L 10.2366 27.6133L 8.13187 0.538961Z"/>
<path id="path40_fill" d="M 17.7944 10.2366L 7.36652 0.191335L 7.17518 0L 0.382676 6.40982L -1.45979e-06 6.79251C 0.765351 8.32321 5.07046 16.4551 7.65352 21.3342L 9.66257 19.2295L 17.7944 10.2366Z"/>
<path id="path41_fill" d="M -2.91959e-06 10.2366L 8.22754 19.2295L 10.2366 21.4299C 12.6283 17.1248 16.3594 9.94959 17.6031 7.46219L 17.7945 6.98385L 17.8901 6.79251L 10.6193 -2.71908e-14L 10.3323 0.28701L -2.91959e-06 10.2366Z"/>
<path id="path42_fill" d="M 34.0582 19.9948C 33.6755 19.4208 33.2928 18.5598 32.8145 17.6988C 30.2314 12.9153 25.9263 4.78346 25.161 3.15709L 25.5436 2.7744L 28.5094 2.91959e-06C 28.5094 2.91959e-06 21.6212 0.669686 15.7854 2.39173C 15.2114 2.58307 14.733 2.67874 14.2547 2.87008C 13.6807 3.06141 13.1067 3.25275 12.5326 3.53976C 6.5055 6.02715 -7.29897e-07 9.18423 -7.29897e-07 9.18423L 1.14803 9.75825L 18.0815 18.6555L 13.2023 21.0472C 13.2023 21.0472 22.3866 27.457 26.1177 30.7098C 29.8487 33.9625 37.7893 47.7389 37.7893 47.7389C 37.7893 47.7389 37.7893 47.3562 37.885 46.5908C 38.172 42.5727 38.5546 28.2224 34.0582 19.9948Z"/>
<path id="path43_fill" d="M 12.9204 3.25275C 12.9204 3.34841 12.8248 3.34841 12.8248 3.44408C 12.7291 3.53975 12.7291 3.7311 12.6334 3.82677C 11.3897 6.31416 7.56298 13.3937 5.26692 17.7944C 4.78858 18.6555 4.4059 19.4208 4.02322 19.9948C -0.473225 28.1267 -0.0905474 42.2857 0.100791 46.4952C 0.100791 47.2605 0.196458 47.7389 0.196458 47.7389C 0.196458 47.7389 8.137 33.9625 11.8681 30.7098C 15.5992 27.457 24.7834 21.0472 24.7834 21.0472L 19.9043 18.6555L 36.5507 9.85392L 37.8901 9.18423C 37.8901 9.18423 31.3846 6.02715 25.3574 3.53976C 24.2094 3.06141 22.87 2.58307 21.435 2.20039C 15.7905 0.669689 9.38069 2.91959e-06 9.38069 2.91959e-06L 12.9204 3.25275Z"/>
<path id="path44_fill" d="M 10.0453 6.60117C 12.15 6.5055 16.7421 4.97479 20.0905 3.92244L 20.0905 -2.91959e-06C 19.7078 0.191335 19.4208 0.287004 19.1338 0.478342C 19.0381 0.478342 18.9425 0.574017 18.8468 0.574017C 18.6555 0.669686 18.3685 0.765358 18.1771 0.861027C 18.0815 0.861027 17.9858 0.956688 17.8901 0.956688C 17.6031 1.05236 17.3161 1.14803 17.1248 1.2437L 17.0291 1.2437C 16.7421 1.33937 16.4551 1.43504 16.1681 1.53071C 16.0724 1.53071 15.9767 1.5307 15.9767 1.62637C 15.7854 1.72204 15.5941 1.72205 15.4027 1.81772C 15.3071 1.81772 15.2114 1.81771 15.1157 1.91338C 14.9244 2.00905 14.733 2.00904 14.5417 2.10471C 14.446 2.10471 14.446 2.10471 14.3504 2.10471C 14.0634 2.20038 13.872 2.20039 13.6807 2.29606C 13.585 2.29606 13.585 2.29606 13.4893 2.29606C 13.298 2.29606 13.1067 2.39172 13.011 2.39172C 12.9153 2.39172 12.9153 2.39172 12.8197 2.39172C 12.6283 2.39172 12.5326 2.4874 12.3413 2.4874L 12.2456 2.4874C 12.0543 2.4874 11.863 2.58306 11.7673 2.58306L 11.6716 2.58306C 11.576 2.58306 11.3846 2.58306 11.289 2.58306L 11.1933 2.58306C 11.0976 2.58306 11.0019 2.58306 10.9063 2.58306L 10.8106 2.58306C 10.7149 2.58306 10.6193 2.58306 10.5236 2.58306C 10.4279 2.58306 10.3323 2.58306 10.3323 2.58306C 10.3323 2.58306 10.3323 2.58306 10.2366 2.58306L 10.1409 2.58306C 10.1409 2.58306 10.1409 2.58306 10.0453 2.58306C 10.0453 2.58306 10.0453 2.58306 9.94958 2.58306L 9.85392 2.58306L 9.75824 2.58306L 9.66257 2.58306C 9.56691 2.58306 9.56691 2.58306 9.47124 2.58306C 9.37557 2.58306 9.37557 2.58306 9.2799 2.58306C 9.18423 2.58306 9.08856 2.58306 8.99289 2.58306C 8.89723 2.58306 8.89722 2.58306 8.80155 2.58306C 8.70588 2.58306 8.61022 2.58306 8.51455 2.58306C 8.41888 2.58306 8.41888 2.58306 8.32321 2.58306C 8.22754 2.58306 8.03621 2.58307 7.94054 2.4874L 7.84486 2.4874C 7.27085 2.39173 6.69684 2.29605 6.02715 2.10471C 5.93149 2.10471 5.83581 2.10472 5.83581 2.00905C 5.64447 2.00905 5.45314 1.91339 5.2618 1.81772C 5.16613 1.81772 5.07046 1.72204 4.97479 1.72204C 4.78345 1.62637 4.59211 1.62638 4.40078 1.53071C 4.30511 1.53071 4.11377 1.43503 4.0181 1.43503C 3.82676 1.33936 3.63542 1.33937 3.34842 1.2437C 3.25275 1.2437 3.06141 1.14802 2.96574 1.14802C 2.7744 1.05235 2.4874 0.956688 2.29606 0.956688C 2.20039 0.861019 2.00905 0.861022 1.91338 0.765353C 1.72204 0.669684 1.43504 0.574012 1.2437 0.478342C 1.05236 0.382673 0.956694 0.382676 0.765356 0.287007C 0.574017 0.191338 0.287006 0.0956662 0.0956676 -2.91959e-06L -4.07862e-14 3.7311C 3.06141 4.9748 8.0362 6.69684 10.0453 6.60117Z"/>
</defs>
</svg>
