<svg width="180" height="163" viewBox="0 0 180 163" version="1.1" xmlns="http://www.w3.org/2000/svg" xmlns:xlink="http://www.w3.org/1999/xlink">
<title>user-it</title>
<desc>Created using Figma</desc>
<g id="Canvas" transform="translate(-2635 -3129)">
<g id="user-it">
<mask id="mask0_alpha" mask-type="alpha">
<g id="Ellipse">
<use xlink:href="#path0_fill" transform="translate(2635 3112)" fill="#CFD7E5"/>
</g>
</mask>
<g id="Dude 1" opacity="0.8" mask="url(#mask0_alpha)">
<g id="Group">
<g id="Group">
<g id="Vector">
<use xlink:href="#path1_fill" transform="translate(2728.12 3270.69)" fill="#E3E3E3"/>
</g>
<g id="Vector">
<use xlink:href="#path2_fill" transform="translate(2700.09 3270.69)" fill="#E3E3E3"/>
</g>
<g id="Vector">
<use xlink:href="#path3_fill" transform="translate(2716.77 3283.15)" fill="#DB4F5D"/>
</g>
<g id="Vector">
<use xlink:href="#path4_fill" transform="translate(2703.31 3231.02)" fill="#EDC0AA"/>
</g>
<g id="Vector">
<use xlink:href="#path5_fill" transform="translate(2729.62 3267.08)" fill="#EDC0AA"/>
</g>
<g id="Vector">
<use xlink:href="#path6_fill" transform="translate(2717.37 3267.08)" fill="#EDC0AA"/>
</g>
<g id="Vector">
<use xlink:href="#path7_fill" transform="translate(2704.61 3233.23)" fill="#EDC0AA"/>
</g>
<g id="Vector">
<use xlink:href="#path8_fill" transform="translate(2704.31 3229.22)" fill="#E0A489"/>
</g>
<g id="Vector">
<use xlink:href="#path9_fill" transform="translate(2632 3258.34)" fill="#282828"/>
</g>
<g id="Vector">
<use xlink:href="#path10_fill" transform="translate(2680.81 3248.9)" fill="#3B3B3D"/>
</g>
<g id="Vector">
<use xlink:href="#path11_fill" transform="translate(2695.37 3248.9)" fill="#EFEFF0"/>
</g>
<g id="Vector">
<use xlink:href="#path12_fill" transform="translate(2701 3248.9)" fill="#CED0D1"/>
</g>
<g id="Vector">
<use xlink:href="#path13_fill" transform="translate(2753.02 3258.34)" fill="#282828"/>
</g>
<g id="Vector">
<use xlink:href="#path14_fill" transform="translate(2740.37 3248.9)" fill="#3B3B3D"/>
</g>
<g id="Vector">
<use xlink:href="#path15_fill" transform="translate(2729.62 3248.9)" fill="#EFEFF0"/>
</g>
<g id="Vector">
<use xlink:href="#path16_fill" transform="translate(2745.09 3248.9)" fill="#CED0D1"/>
</g>
<g id="Vector">
<use xlink:href="#path17_fill" transform="translate(2713.95 3267.08)" fill="#D1515E"/>
</g>
</g>
<g id="Vector">
<use xlink:href="#path18_fill" transform="translate(2677.97 3137.62)" fill="#F2C4AE"/>
</g>
<g id="Vector">
<use xlink:href="#path19_fill" transform="translate(2680.55 3129)" fill="#864242"/>
</g>
<g id="Vector">
<use xlink:href="#path20_fill" transform="translate(2687.33 3182.26)" fill="#323232"/>
</g>
</g>
</g>
</g>
</g>
<defs>
<path id="path0_fill" d="M 180 90C 180 139.706 139.706 180 90 180C 40.2944 180 0 139.706 0 90C 0 40.2944 40.2944 0 90 0C 139.706 0 180 40.2944 180 90Z"/>
<path id="path1_fill" d="M 20.589 6.13002e-06L 15.266 16.3708L 4.01737 6.13002e-06L 6.7291 4.01738L 3.06501e-06 13.3578L 2.41042 25.6108L 12.253 25.6108L 20.589 6.13002e-06Z"/>
<path id="path2_fill" d="M 13.8599 3.91694L 16.5717 6.13002e-06L 5.32302 16.3708L 1.53251e-06 6.13002e-06L 8.33605 25.6108L 16.6721 25.6108L 20.1873 13.3578C 18.0782 10.2443 15.9691 7.0304 13.8599 3.91694Z"/>
<path id="path3_fill" d="M 7.43214 0C 5.62432 0 4.21824 0.6026 3.5152 0.903903L 0 13.1569L 13.8599 13.1569L 11.3491 0.903903C 10.646 0.6026 9.23996 0 7.43214 0Z"/>
<path id="path4_fill" d="M -1.53251e-06 20.1873L 15.7682 35.9555L 26.2134 35.9555L 41.9815 20.1873L 41.6802 17.8773L 39.2698 -1.53251e-06L 40.5755 9.74213C 37.9642 13.1569 25.5103 20.0869 20.1873 20.1873C 15.0651 20.2877 1.80782 11.2486 0.903909 10.646L 0.100431 17.8773L -1.53251e-06 20.1873Z"/>
<path id="path5_fill" d="M 2.20955 3.21389L 3.06501e-06 0L 2.20955 3.21389Z"/>
<path id="path6_fill" d="M 1.80782 0L -1.53251e-06 2.51086L 1.80782 0Z"/>
<path id="path7_fill" d="M 11.8512 3.06501e-06L 0.602606 1.00435L 1.53251e-06 6.62867L 0.703039 1.70738L 11.8512 3.06501e-06Z"/>
<path id="path8_fill" d="M 39.6716 11.5499L 38.3659 1.80782L 38.165 3.06501e-06L 12.1525 3.91694L 1.00434 5.62432L 0.301304 10.5456L -1.53251e-06 12.3534C -1.53251e-06 12.3534 -3.06801e-06 12.3534 0.100431 12.3534C 1.00434 12.956 14.2617 21.9951 19.3838 21.8947C 24.7068 21.9951 37.0603 14.9647 39.6716 11.5499Z"/>
<path id="path9_fill" d="M 63.8762 28.1216L 48.8111 21.5934L 56.0424 3.06501e-06L 18.5803 10.8469C 18.5803 10.8469 10.646 18.7812 1.49658e-09 37.9642L 55.741 37.9642L 52.9289 31.2351L 63.8762 28.1216Z"/>
<path id="path10_fill" d="M 14.563 7.43214L 20.1873 1.53251e-06L 7.83388 7.43214L 7.13084 9.34039L 7.66253e-07 31.0342L 15.0651 37.5624L 4.01737 40.6759L 6.82953 47.405L 23.5016 47.405L 27.6194 47.405L 19.183 21.7943L 14.563 7.43214Z"/>
<path id="path11_fill" d="M 4.61998 21.7943L 10.0434 38.165L 21.2921 21.7943L 21.9951 20.6895L 23.8029 18.1786L 7.93431 2.30999L 5.62432 1.53251e-06L 7.66253e-07 7.43214L 4.61998 21.7943Z"/>
<path id="path12_fill" d="M 2.30999 2.30999L 2.61129 1.53251e-06L 3.06501e-06 1.53251e-06L 2.30999 2.30999Z"/>
<path id="path13_fill" d="M 45.2959 10.8469L 7.83387 3.06501e-06L 15.0652 21.5934L -1.53251e-06 28.1216L 11.0478 31.3355L 8.23562 38.0646L 63.9767 38.0646C 53.2302 18.7812 45.2959 10.8469 45.2959 10.8469Z"/>
<path id="path14_fill" d="M 12.5543 37.5624L 27.6194 31.0342L 20.3882 9.34039L 19.7856 7.43214L 7.33171 1.53251e-06L 13.0565 7.43214L 8.33605 21.7943L 0 47.405L 4.11781 47.405L 20.7899 47.405L 23.6021 40.6759L 12.5543 37.5624Z"/>
<path id="path15_fill" d="M 3.06501e-06 18.1786L 2.20955 21.3925L 2.51086 21.7943L 13.7595 38.165L 19.0825 21.7943L 23.8029 7.43214L 18.0782 1.53251e-06L 15.7682 2.30999L 3.06501e-06 18.1786Z"/>
<path id="path16_fill" d="M 0.301303 2.30999L 2.6113 1.53251e-06L -3.06501e-06 1.53251e-06L 0.301303 2.30999Z"/>
<path id="path17_fill" d="M 15.6678 0L 5.22259 0L 3.41477 2.6113L 2.71173 3.71607L -3.06501e-06 7.63301C 2.10912 10.8469 4.21824 13.9604 6.32736 17.1743C 7.0304 16.873 8.43648 16.2704 10.2443 16.2704C 12.0521 16.2704 13.4582 16.873 14.0608 17.1743L 20.8903 7.83388L 18.0782 3.81651L 17.7769 3.41476L 15.6678 0Z"/>
<path id="path18_fill" d="M 79.5777 46.7026C 79.5777 46.7026 81.9881 -0.200225 43.9235 0.000643734C 5.95936 -0.200225 8.36978 46.7026 8.36978 46.7026C 3.95067 46.5017 -0.870178 46.3009 0.134166 58.2525C 1.13851 70.2042 12.1863 71.309 12.1863 71.309C 12.8893 83.3611 20.5223 95.1119 26.2471 100.134C 31.9718 105.155 44.024 105.155 44.024 105.155C 44.024 105.155 56.0761 105.155 61.8008 100.134C 67.5256 95.1119 75.1586 83.3611 75.8616 71.309C 75.8616 71.309 86.9094 70.2042 87.9137 58.2525C 88.9181 46.3009 83.9968 46.4013 79.5777 46.7026Z"/>
<path id="path19_fill" d="M 1.16057 24.3872C 6.88533 5.00337 42.1378 -8.85657 63.8316 6.71075C 64.5346 3.59729 66.242 2.59294 70.2594 1.5886C 68.1503 3.89859 67.0455 5.00337 67.4472 6.91162C 69.1546 4.70206 71.6655 5.20423 74.3772 5.4051C 71.3642 6.00771 69.6568 7.61466 68.9537 9.52291C 74.0759 10.3264 86.831 19.1646 84.5211 33.0245C 80.6041 56.2249 80.0015 55.321 80.0015 55.321C 80.0015 55.321 76.4863 58.1331 74.9798 65.5653C 74.9798 65.5653 73.172 44.2732 72.4689 40.9588C 71.7659 37.6445 65.2377 27.9024 65.2377 27.9024C 65.2377 27.9024 43.9456 44.8758 26.5705 42.3649C 26.5705 42.3649 32.3956 38.448 29.0813 32.6228C 26.8718 35.7363 24.16 41.9632 16.527 41.6619C 19.2388 39.6532 19.5401 37.3432 18.5357 34.2297C 16.9288 37.4436 10.1997 41.6619 9.59706 41.0593L 8.09054 63.1548C 8.09054 63.1548 6.28272 55.1201 1.16057 55.7227C 1.16057 55.6223 -1.45072 33.2254 1.16057 24.3872Z"/>
<path id="path20_fill" d="M 41.0861 1.85911C 39.0774 2.56215 36.667 3.46606 34.5579 3.46606C 32.5492 3.46606 30.1388 2.46172 28.0296 1.85911C 22.9075 0.151727 10.5541 -0.953051 1.81629 1.15607C 0.711516 1.45737 -0.0919577 2.46171 0.0084766 3.56649L 0.108909 4.67127C 0.108909 5.57518 0.711514 6.27822 1.41455 6.67996C 1.81629 6.88083 2.1176 7.28256 2.31847 7.88517C 2.82064 9.59255 4.02585 16.8238 6.33584 19.7364C 9.148 23.2516 15.0736 23.352 19.091 23.2516C 24.5144 23.0507 28.1301 20.6403 29.6366 16.5225C 31.1431 12.4047 32.047 8.88951 32.9509 7.78473C 33.4531 7.18213 34.0557 7.18213 34.5579 7.18213C 35.06 7.18213 35.5622 7.18213 36.1648 7.78473C 37.1692 8.88951 37.9726 12.4047 39.4792 16.5225C 40.9857 20.6403 44.6013 23.0507 50.0248 23.2516C 54.0421 23.4525 60.0682 23.2516 62.7799 19.7364C 64.9895 16.9243 66.1947 9.69299 66.7973 7.88517C 66.9982 7.18213 67.2995 6.88083 67.7012 6.67996C 68.4042 6.27822 69.0069 5.57518 69.0069 4.67127L 69.1073 3.56649C 69.2077 2.46171 68.4042 1.35694 67.2995 1.15607C 58.5617 -0.953051 46.2083 0.252161 41.0861 1.85911ZM 27.2262 16.5225C 25.7197 19.2342 23.3092 20.6403 19.5932 21.1425C 15.8771 21.6447 11.458 20.8412 9.24843 19.5355C 7.34018 18.3303 6.33584 14.7147 5.83367 12.5051C 5.33149 10.2956 4.52802 5.47475 6.83801 3.8678C 9.148 2.26085 14.8728 2.16041 18.6893 2.36128C 21.6019 2.56215 27.7283 3.26519 28.9336 5.47474C 30.1388 7.78473 28.4314 14.313 27.2262 16.5225ZM 63.2821 12.5051C 62.7799 14.7147 61.876 18.4308 59.8673 19.5355C 57.6578 20.8412 53.2387 21.5442 49.5226 21.1425C 45.8065 20.6403 43.3961 19.2342 41.8896 16.5225C 40.6844 14.313 38.977 7.78473 40.1822 5.57518C 41.3874 3.36562 47.5139 2.56215 50.4265 2.46171C 54.243 2.26085 59.9678 2.36128 62.2777 3.96823C 64.4873 5.47474 63.6838 10.2956 63.2821 12.5051Z"/>
</defs>
</svg>
