<svg width="105" height="166" viewBox="0 0 105 166" version="1.1" xmlns="http://www.w3.org/2000/svg" xmlns:xlink="http://www.w3.org/1999/xlink">
<title>user-po</title>
<desc>Created using Figma</desc>
<g id="Canvas" transform="translate(-2320 -3125)">
<g id="user-po">
<mask id="mask0_alpha" mask-type="alpha">
<g id="Ellipse">
<use xlink:href="#path0_fill" transform="translate(2285 3112)" fill="#CFD7E5"/>
</g>
</mask>
<g id="Lady 2" opacity="0.8" mask="url(#mask0_alpha)">
<g id="Group">
<g id="Group">
<g id="Group">
<g id="Group">
<g id="Vector">
<use xlink:href="#path1_fill" transform="translate(2331.17 3163.93)" fill="#FFD4AD"/>
</g>
<g id="Vector">
<use xlink:href="#path2_fill" transform="translate(2408.07 3165.84)" fill="#864242"/>
</g>
<g id="Vector">
<use xlink:href="#path3_fill" transform="translate(2333.45 3125.91)" fill="#1A0D0D"/>
</g>
</g>
<g id="Group">
<g id="Vector">
<use xlink:href="#path4_fill" transform="translate(2375.34 3249.38)" fill="#F35B74"/>
</g>
<g id="Vector">
<use xlink:href="#path5_fill" transform="translate(2372.55 3263.84)" fill="#F35B74"/>
</g>
<g id="Vector">
<use xlink:href="#path6_fill" transform="translate(2320.8 3249.2)" fill="#F35B74"/>
</g>
<g id="Vector">
<use xlink:href="#path7_fill" transform="translate(2362.74 3236.7)" fill="#F0C4A3"/>
</g>
<g id="Vector">
<use xlink:href="#path8_fill" transform="translate(2364.87 3252.4)" fill="#26A7DE"/>
</g>
<g id="Vector">
<use xlink:href="#path9_fill" transform="translate(2356 3242.91)" fill="#FFFFFF"/>
</g>
<g id="Vector">
<use xlink:href="#path10_fill" transform="translate(2372.59 3243)" fill="#FFFFFF"/>
</g>
</g>
</g>
</g>
</g>
</g>
</g>
</g>
<defs>
<path id="path0_fill" d="M 180 90C 180 139.706 139.706 180 90 180C 40.2944 180 0 139.706 0 90C 0 40.2944 40.2944 0 90 0C 139.706 0 180 40.2944 180 90Z"/>
<path id="path1_fill" d="M 75.2985 27.0095C 75.2985 27.1869 75.2985 27.2756 75.2985 27.4529C 74.0569 28.6059 72.7266 31.2664 71.7511 32.6854C 72.5492 27.8964 73.5248 22.8412 71.9284 15.6576C 71.7511 15.1255 71.5737 14.5934 71.3963 13.9726C 69.6226 9.53827 65.3656 8.47404 60.7539 6.96637C 54.4572 4.92658 47.9831 6.43425 41.6864 4.83789C 37.7842 3.86234 34.6801 0.314883 30.6892 0.0488242C 12.5972 -1.1041 9.13844 18.4069 11.3556 32.5967C 10.0253 30.9117 8.87239 29.0493 7.80815 27.1869C 3.81726 25.0584 -0.705747 28.5172 0.0924304 34.4592C 1.95484 48.2056 8.7837 45.811 8.7837 45.811C 20.579 75.3436 41.3316 75.2549 41.3316 75.2549C 41.3316 75.2549 61.9955 75.4323 73.8795 45.811C 73.8795 45.811 80.7971 48.2056 82.5708 34.4592C 83.369 28.6945 79.2007 25.3245 75.2985 27.0095Z"/>
<path id="path2_fill" d="M 0.170283 1.14964C 0.879775 6.20477 -0.450522 -3.10731 0.170283 1.14964L 0.170283 1.14964Z"/>
<path id="path3_fill" d="M 28.41 38.0672C 32.3122 38.3333 35.4162 41.7921 39.4071 42.8563C 45.7039 44.4527 52.178 42.945 58.4747 44.9848C 63.0864 46.4924 67.3434 47.5567 69.1171 51.991C 69.2945 52.4344 69.4718 52.9665 69.6492 53.5873L 69.6492 53.676C 71.2456 60.8596 70.3587 65.9148 69.4718 70.7038C 70.4474 69.2848 71.7777 66.7129 73.0193 65.4713C 73.0193 65.294 73.0193 65.2053 73.0193 65.0279C 73.7288 56.4253 76.1233 50.306 74.7043 41.0826C 73.0193 29.376 68.585 22.1924 57.7652 17.2259C 58.2973 5.34194 44.9944 -1.75297 34.5294 0.375502C 28.3213 1.61711 24.6852 5.34194 21.2264 10.2197C 18.7432 13.7671 19.0093 14.1219 15.9939 16.7825C 13.6881 18.7336 11.0275 19.9752 8.81031 22.281C -2.71892 34.6085 -2.00943 51.8136 5.6176 65.294C 6.68184 67.1564 7.83477 69.0188 9.16506 70.7038C 6.85921 56.4253 10.318 36.9143 28.41 38.0672Z"/>
<path id="path4_fill" d="M 4.87775 11.2632L 0 14.8993L 2.12848 41.0618L 48.7775 41.0618C 48.7775 41.0618 43.1016 10.3763 37.9578 6.91754C 35.3859 5.2325 23.9453 2.30585 13.8351 2.70649e-06L 8.33652 14.988L 4.87775 11.2632Z"/>
<path id="path5_fill" d="M 0.0394175 6.10352e-06C 0.0394175 6.10352e-06 -0.0492689 6.10352e-06 0.0394175 6.10352e-06C 0.0394175 6.10352e-06 0.128101 6.10352e-06 0.216788 6.10352e-06C 0.128101 6.10352e-06 0.0394175 6.10352e-06 0.0394175 6.10352e-06Z"/>
<path id="path6_fill" d="M 44.1658 11.4405L 40.7958 15.0767L 35.2972 5.41299e-06C 25.0983 2.30585 13.4803 5.32119 10.8197 7.00623C 5.58724 10.465 0 41.1505 0 41.1505L 47.0038 41.1505L 49.0436 14.988L 44.1658 11.4405Z"/>
<path id="path7_fill" d="M 9.84419 15.6975L 19.1563 6.38542L 19.1563 0.17737C 13.7464 2.5719 9.84419 2.5719 9.84419 2.5719C 9.84419 2.5719 5.76462 2.57191 0.177373 2.52062e-14L 2.70649e-06 6.20805L 9.84419 15.6975Z"/>
<path id="path8_fill" d="M 10.3763 11.9727L 15.2541 8.33653L 7.62703 -2.70649e-06L -2.70649e-06 8.33653L 4.87775 11.9727L 2.92665 38.0465L 12.5048 38.0465L 10.3763 11.9727ZM 7.71572 11.4406C 7.71572 11.4406 7.8044 11.4406 7.89309 11.4406C 7.8044 11.4406 7.71572 11.4406 7.71572 11.4406C 7.71572 11.4406 7.62703 11.4406 7.71572 11.4406Z"/>
<path id="path9_fill" d="M 8.95733 17.7373L 16.5844 9.48944L 6.74017 0L -2.70649e-06 6.29674L 0.0886891 6.38542L 5.58724 21.4621L 8.95733 17.7373Z"/>
<path id="path10_fill" d="M 1.35325e-06 9.40076L 7.62703 17.6486L 10.9971 21.3734L 16.407 6.38542L 16.4957 6.20805L 9.31208 5.41299e-06L 1.35325e-06 9.40076Z"/>
</defs>
</svg>
